# xmcd
#
# Track frame offsets: 
#        150
#        22071
#        40500
#        65481
#        83344
#        98368
#        115775
#        135345
#        155899
#        167230
#        185708
#        204740
#        225661
#        243059
#        263495
#
# Disc length: 3774 seconds
#
# Revision: 1
# Processed by: cddbd v1.5.2PL0 Copyright (c) Steve Scherf et al.
# Submitted via: ExactAudioCopy v0.99pb4
#
DISCID=b70ebc0f
DTITLE=Various Artist - Ultimate EFY Collection
DYEAR=2008
DGENRE=LDS Music
TTITLE0=Katherin Nelson and Greg Simpson - Taking It Home With Me
TTITLE1=Mindy Gledhill - Child Of Light
TTITLE2=Julie de Azevedo - Broken Hearts
TTITLE3=Michael Webb - Like A Lighthouse
TTITLE4=Jenny Jordan Frogley - Anchor Of My Soul
TTITLE5=Brett Raymond - Do Likewise, My Friend
TTITLE6=Marla Bulleigh - Mercy's Arm
TTITLE7=Kenneth Cope - More
TTITLE8=Katherine Nelson - Keeper Of The Flame
TTITLE9=Hilary Weeks - He Hears Me
TTITLE10=David Osmond - Shine On
TTITLE11=Jenny Phillips - Live Like You Believe
TTITLE12=Kenneth Cope - We Believe
TTITLE13=Cherie Call - It Passes All My Understanding
TTITLE14=John McVey and Felicia Wolfe - Whatever It Takes
EXTD=YEAR: 2008
EXTT0=
EXTT1=
EXTT2=
EXTT3=
EXTT4=
EXTT5=
EXTT6=
EXTT7=
EXTT8=
EXTT9=
EXTT10=
EXTT11=
EXTT12=
EXTT13=
EXTT14=
PLAYORDER=
